<?xml version="1.0" encoding="UTF-8" standalone="no"?>
<!-- Created with Inkscape (http://www.inkscape.org/) -->

<svg
   width="152.77383mm"
   height="74.165001mm"
   viewBox="0 0 152.77383 74.165001"
   version="1.1"
   id="svg1"
   xmlns="http://www.w3.org/2000/svg"
   xmlns:svg="http://www.w3.org/2000/svg">
  <defs
     id="defs1">
    <linearGradient
       id="swatch11">
      <stop
         style="stop-color:#000000;stop-opacity:1;"
         offset="0"
         id="stop11" />
    </linearGradient>
  </defs>
  <g
     id="layer1"
     transform="translate(-22.626257,-130.89288)">
    <path
       id="text1"
       style="font-size:31.2327px;line-height:1.25;font-family:sans-serif;letter-spacing:0px;word-spacing:0px;fill:#ff0e0e;fill-opacity:1;stroke:#646464;stroke-width:0.874755;stroke-dasharray:none;stroke-opacity:1"
       d="m 61.517552,134.57423 c -0.341341,0.45497 -0.12336,0.58413 -0.341121,1.22993 -0.607861,3.60844 -5.754773,16.89831 -5.940974,33.46662 0.148009,0.72201 0.797733,0.15326 1.136087,0.33709 0.464358,-0.11782 4.322222,0.22808 4.746396,-0.12911 2.190401,-1.90285 3.674597,-1.55731 1.884036,-6.93767 0.366667,-0.8141 0.84287,2.22902 -0.31336,-0.21008 1.747067,0.0567 2.68259,1.98993 4.212037,-0.31782 0.474888,4.82994 -0.780733,0.52968 -0.524692,1.35097 0.537111,2.48146 2.031735,3.81389 2.614494,6.24063 0.812812,0.12855 1.666443,0.0698 2.487896,0.0373 0.237087,-0.58173 3.195736,0.14787 3.16161,-0.50059 -1.110997,-10.36983 -2.011317,-23.42044 -7.003079,-34.26926 -0.447589,-0.35666 -3.607939,-2.98036 -4.09828,-3.09678 -0.224828,0.004 -0.648151,1.52753 -0.674816,1.97058 -0.01667,0.27694 -1.070083,0.46011 -1.346234,0.82819 z m 37.682196,1.56515 c -0.34151,0.45484 -0.330414,1.4644 -0.548152,2.11021 -2.253979,10.39728 -4.523915,21.54549 -6.767937,31.94857 0.148012,0.722 0.797739,-0.60697 1.136092,-0.42314 -0.296839,2.54277 5.000774,0.4184 5.42438,0.0609 0.712198,-3.19556 -1.109664,-2.84188 -0.380939,-6.01907 0.366671,-0.8141 1.240151,0.12378 1.740826,-0.0371 1.747072,0.0567 1.038952,-0.0812 2.775512,0.0964 0.47489,0.48057 1.22259,-2.40889 1.47863,-1.58759 0.53711,2.48145 -0.90543,6.38696 -0.32267,8.81369 0.81281,0.12855 3.18772,1.59027 5.34029,-0.34277 0.2371,-0.58174 -1.17794,-2.32286 -1.21206,-2.97131 -1.13714,-16.43858 -0.67774,-32.01571 -4.54427,-32.64526 -0.44759,-0.35667 -2.95454,1.11012 -3.444882,0.9937 -0.224827,0.004 -0.384361,-0.38408 -0.519485,-0.20411 z m -75.487823,0.21624 c -2.358962,0.16766 2.507714,11.36788 2.414922,11.99747 -0.04569,10.46566 -0.69964,10.48582 -0.721737,20.94675 4.875082,0.4343 1.96281,0.0532 3.865421,0.18442 -1.088927,-0.28447 2.45446,-0.18959 2.849843,-0.50103 0.08803,-4.15865 -1.467947,-7.97709 -1.427002,-12.15104 0.265416,-1.0195 0.886986,-1.55018 1.305173,-2.36068 0.63559,-0.61265 0.913281,0.98149 1.257311,1.6666 1.784534,4.44185 3.527137,8.95912 5.337751,13.35405 0.928497,0.0489 1.880855,0.0915 2.806981,-0.005 0.177997,-0.7115 3.365389,2.63774 3.224461,1.97755 -2.001522,-5.5517 -2.251932,-18.49765 -10.195853,-20.40266 -0.188371,-1.08382 0.578824,-1.70834 0.857426,-2.51612 1.442796,-2.33903 3.665856,-7.37447 5.556907,-11.07427 0.393506,-0.5288 1.376108,5.79418 1.441875,6.56473 -0.296169,11.64946 2.112543,15.73063 5.307492,25.38377 0.415151,0.37841 0.96528,2.93038 1.42733,3.05328 0.350917,-0.15838 0.875534,-2.56928 1.125618,-3.13977 1.382746,-4.53651 3.026211,-10.97842 6.572792,-32.93829 -0.157563,-0.69888 1.864395,-2.99175 1.526081,-3.17349 -0.491273,0.0567 -3.464017,-1.94175 -3.942316,0.88819 -0.922067,0.50464 -2.074165,0.64603 -2.479461,-0.0871 -2.593773,-3.85427 -2.171561,13.22296 -3.088185,18.0493 -0.223314,0.75862 -0.306395,0.2418 -0.354933,1.31345 -0.858714,-5.24268 -0.983068,-5.40094 -1.931248,-10.66477 -0.528945,-2.70687 -0.470293,-7.57845 -0.791882,-7.58814 -0.128991,0.24838 0.239514,-0.31629 -5.368477,-1.59455 -0.703612,0.0835 -0.125448,2.40598 -0.855644,2.46076 -0.450212,0.0379 -1.010205,-3.39036 -1.251324,-2.43739 -3.105318,-6.94085 -4.51008,10.71998 -6.677935,16.52017 -0.431419,0.55663 -0.900339,-0.39528 -0.767899,-1.23184 0.0032,-4.25139 0.08309,-8.52694 0.03896,-12.76345 -3.232128,-7.93869 -9.151619,0.0509 -5.175146,-0.32503 -3.035156,0.21045 0.760339,0.33838 0.584786,0.40355 z m 54.538217,-0.15593 c -0.520487,-0.20809 -4.771699,0.80251 -4.738058,1.42141 1.992887,10.52735 5.581588,25.96916 7.583168,36.48906 0.415726,0.37811 3.92041,-3.16088 4.383017,-3.03828 0.350385,-0.15844 3.536754,0.14036 3.786297,-0.43025 2.18828,-10.98081 5.538679,-22.33064 7.713752,-33.3184 -0.157563,-0.69888 -4.410897,-0.90113 -4.749213,-1.08288 -0.491274,0.0567 -1.008879,-0.11242 -1.487178,0.0567 -0.714962,3.19711 -1.296578,2.36201 -1.960761,5.61584 -0.945724,4.83003 -0.961872,6.26093 -1.878495,11.08727 -0.22331,0.75862 -1.827678,-2.03888 -1.876215,-2.86779 -0.478391,-2.5819 -2.517616,-2.01405 -3.465799,-7.27788 -1.669906,-3.65714 -0.388294,-3.95335 -0.968774,-6.60374 -0.760468,-0.14598 -0.678551,0.61383 -1.390941,0.32903 z m 31.956118,-2.88967 c -0.45736,0.16766 -1.10533,0.9148 -1.19813,1.54439 -1.33605,2.00368 -0.34598,23.20181 1.37004,34.82084 0.31123,0.4343 0.82185,0.0531 1.20318,0.18443 2.55011,3.18137 8.28641,2.02831 9.09527,0.0155 0.23862,-0.57498 0.0349,-1.51042 0.10904,-2.21201 -0.0825,-0.62071 0.18196,-1.60401 -0.11972,-2.02199 -1.53505,-2.17675 -4.29595,-1.36402 -7.33028,-0.0911 -0.61996,-0.379 1.61951,-0.18391 1.54101,-1.10108 2.78931,-9.77206 4.9262,-24.37705 -0.25634,-31.16543 -0.31124,-0.43429 -1.58249,-0.0532 -1.96382,-0.18443 -0.37121,0.017 -1.29597,-0.0886 -1.6603,-0.0279 z m 11.66048,-0.1611 c -0.45736,0.16765 -0.96879,0.0486 -1.06158,0.67817 -3.10448,10.46567 2.08488,25.44726 2.73413,35.90819 0.31124,0.4343 0.82186,0.0532 1.20318,0.18443 2.0302,0.87378 3.21019,2.99662 9.09685,0.0155 0.23862,-0.57497 0.0349,-1.51042 0.10903,-2.21201 -0.0825,-0.62071 0.18197,-1.60401 -0.11972,-2.02199 -2.44095,-0.0641 -2.61619,-1.67022 -5.04835,-1.80163 -0.61995,-0.37899 -2.56403,-0.1839 -2.64254,-1.10107 3.43657,-9.9397 6.01537,-21.01328 0.88464,-27.93448 -0.31124,-0.4343 -1.20217,-1.00346 -1.58349,-1.13471 -0.37175,0.0169 -2.83248,-0.52167 -3.19735,-0.46098 z m 15.23383,0.28116 c -0.49242,-2.56324 -5.3177,-3.26414 -5.00372,0.68364 -2.4429,1.03292 2.78579,31.42897 4.60513,35.68158 0.31124,0.4343 0.82186,0.0532 1.20318,0.18443 4.16356,5.39464 11.95529,0.96506 14.72469,-0.17491 0.23863,-0.57498 -3.8059,-0.90614 -3.73175,-1.60773 -0.0821,-0.60597 3.45148,-1.98658 3.15034,-2.39005 -2.36367,-0.18598 -8.67859,-2.99908 -12.38921,-0.0908 -0.61995,-0.379 -0.2821,-1.89442 -0.3606,-2.81158 0.0319,-2.54421 -0.01,-5.11571 0.0669,-7.64333 0.21073,-1.14181 1.03312,-0.53195 1.53288,-0.68279 1.89297,-0.0268 3.7986,0.0876 5.6838,-0.0261 -2.88343,-2.58433 -3.86292,-3.13706 0.086,-3.22053 0.19242,-1.0196 -0.35626,-0.98979 -0.73097,-0.9067 -2.06381,-0.0426 -2.07156,0.25441 -4.12607,0.12981 -0.61996,-0.379 -1.31767,-2.10153 -1.39618,-3.01869 1.77322,-1.85783 2.08884,-3.78191 -0.97636,-6.16567 0.21075,-1.14179 1.03314,-0.53194 1.5329,-0.68279 2.04376,-0.0262 4.10018,0.0891 6.13616,-0.0239 0.17352,-0.98551 -2.51419,-2.35534 -2.45745,-3.41059 0.17441,-0.91671 3.4305,-2.06765 3.03424,-1.90566 -3.07096,0.0282 -1.46699,-0.22601 -8.68239,-1.53755 z m 15.74884,2.89493 c -0.52735,0.17264 -1.95266,-0.56464 -1.84578,-0.0239 1.83378,6.38948 1.40995,14.47189 3.22859,20.87232 0.0571,4.21949 4.70029,3.91446 4.73105,8.14041 0,0 1.5825,5.3747 -1.07874,5.88611 0.43235,-0.0944 7.0183,0.1905 7.41368,-0.12093 0.0959,-4.24823 -0.531,-8.73302 -0.46378,-12.99245 1.62356,-5.61649 1.26662,-8.68208 2.93291,-14.2678 0.32806,-1.21719 4.59759,-8.8314 4.84058,-10.08912 8.80412,-4.62869 -9.81957,2.61511 -10.99732,2.82717 -0.46285,0.12304 -1.03221,-0.25587 -1.43224,0.18106 -1.39697,4.75176 1.96117,9.12451 0.5635,13.87558 -1.09817,2.62163 -1.40488,2.31849 -1.53763,1.52952 -1.31767,-4.61489 -1.81719,-11.59002 -3.17077,-16.15526 -0.79511,-0.10594 -2.76683,-0.0473 -3.56442,-0.0428 z m -89.155659,7.64991 c 0.671259,0.7158 0.532941,2.35552 0.875166,3.46755 0.418687,2.3142 -0.68842,-1.01953 -0.35002,1.32886 -0.177741,1.29509 -0.221236,0.2609 -0.73811,0.39829 -0.954296,-0.0577 1.168854,-0.93976 -1.010647,0.32603 -2.249347,-2.5899 -1.271769,1.30724 -1.110215,0.60031 0.602021,-2.84195 1.191074,-3.0344 1.788962,-5.85807 0.0871,-0.26456 0.40651,-0.47252 0.54487,-0.26303 z m 36.266306,4.53843 c 0.515933,-0.31976 0.857313,0.39193 0.857313,0.39193 0.41868,2.3142 1.36667,3.27685 1.70506,5.62525 -0.17773,1.29509 -1.04968,0.67512 -1.56655,0.81251 -0.9543,-0.0577 -1.937842,0.0958 -2.874665,-0.0882 -0.592444,-0.31166 -0.236212,-1.59234 -0.07465,-2.29927 0.602011,-2.84195 0.586683,-3.66855 1.754132,-4.16219 -0.08423,-0.38396 0.165457,-0.3142 0.165457,-0.3142 z" />
    <path
       d="m 39.115143,179.78185 c -0.03116,2.26851 -0.363021,4.93121 -0.948457,7.61005 -0.67402,3.06406 -3.863122,8.17871 -2.349124,9.9995 0.492128,2.29176 10.029435,7.21076 15.555008,7.2291 3.807665,-0.0106 4.024048,-2.57836 6.622333,-5.36024 -0.510235,-2.49035 -0.443641,-5.45312 -0.09186,-8.80783 0.307099,-2.88461 0.920405,-5.64156 1.740815,-7.82534 -3.063232,-6.89383 -6.105474,-7.37546 -8.892625,-7.27374 -3.619357,0.84395 -10.902597,1.32332 -11.636088,4.4285 z"
       style="opacity:0.903974;fill:#ffff00;stroke:#000000;stroke-width:0.874755;paint-order:stroke fill markers"
       id="path48" />
    <path
       d="m 38.913448,179.68106 c -3.027192,2.60495 -7.731859,8.93001 -6.34992,14.06154 2.499805,2.72421 2.905317,3.58931 2.757122,2.27885 1.074914,-2.18323 2.172016,-5.56549 2.846036,-8.62955 0.585437,-2.67884 0.715599,-5.44234 0.746762,-7.71084 z"
       style="opacity:0.903974;fill:#0000ff;stroke:#000000;stroke-width:0.46262;paint-order:stroke fill markers"
       id="path49" />
    <path
       d="m 59.744704,182.45911 c -0.82041,2.18378 -1.534563,5.10871 -1.841663,7.99332 -0.35178,3.35472 -0.146738,6.34831 0.363499,8.83866 2.625861,-3.07182 2.279315,-8.43532 1.248756,-9.53694 -0.0016,-3.04168 1.698094,-5.05369 0.229408,-7.29504 z"
       style="opacity:0.903974;fill:#0000ff;stroke:#000000;stroke-width:0.467258;paint-order:stroke fill markers"
       id="path50" />
    <path
       style="fill:none;stroke:none;stroke-width:0.24286px;stroke-linecap:butt;stroke-linejoin:miter;stroke-opacity:1"
       d="m 37.686476,189.95844 c 0,0 1.311019,0.70555 2.016954,1.17592 0.705934,0.47036 4.672608,2.5534 5.580237,2.31823 0.90763,-0.23519 0.941246,-0.30239 0.941246,-0.30239 0,0 3.395207,-1.2767 5.714702,-0.97432 2.319499,0.30238 5.513008,0.83994 5.613857,1.2431 0.100846,0.40318 0.168078,-3.66212 0.268927,-3.89731 0.100846,-0.23517 -5.445776,-1.41109 -6.521486,-1.2431 -1.075708,0.16798 -4.57176,0.47036 -5.042384,0.97432 -0.470622,0.50397 -3.462436,-0.30237 -3.76498,-0.23518 -0.302542,0.0672 -2.319498,-1.91505 -4.033908,-2.587 -1.714411,-0.67195 -0.773165,3.52773 -0.773165,3.52773 z"
       id="path52" />
    <path
       style="fill:#0000ff;fill-opacity:1;stroke:#000000;stroke-width:0.243242;stroke-linecap:butt;stroke-linejoin:miter;stroke-dasharray:none;stroke-opacity:1"
       d="m 37.65286,190.29442 c 0,0 2.526211,1.23494 3.798596,1.81427 3.025432,1.37749 4.321047,1.10665 7.765272,0.60475 1.749945,-0.255 4.343317,-0.95442 5.210464,-1.17591 0.953448,-0.24354 1.949724,-0.50396 3.159895,-0.23519 0.23663,0.0526 0.458814,-3.26714 0.571471,-3.83012 0.03361,-0.16798 -3.755334,0.18692 -4.706227,0.30239 -1.373063,0.16673 -2.998497,1.05956 -5.109616,1.41109 -1.638697,0.27287 -3.294358,0.60476 -4.975152,-0.13441 -0.523073,-0.23003 -4.786054,-2.1951 -4.874306,-2.21743 -0.08412,-0.0213 -0.874014,3.32615 -0.840397,3.46054 z"
       id="path53" />
    <text
       xml:space="preserve"
       style="font-size:4.56599px;line-height:1.25;font-family:sans-serif;letter-spacing:0px;word-spacing:0px;stroke-width:0;stroke-dasharray:none"
       x="105.21181"
       y="162.52681"
       id="text53"
       transform="matrix(0.95240653,0.38677764,-0.36637719,0.90118397,0,0)"><tspan
         id="tspan53"
         style="stroke-width:0;stroke-dasharray:none"
         x="105.21181"
         y="162.52681">K</tspan></text>
    <text
       xml:space="preserve"
       style="font-size:4.68478px;line-height:1.25;font-family:sans-serif;letter-spacing:0px;word-spacing:0px;stroke-width:0.117121"
       x="98.899208"
       y="165.03439"
       id="text54"
       transform="matrix(0.94966623,0.31669177,-0.30081269,0.95268745,0,0)"><tspan
         id="tspan54"
         style="stroke-width:0.117121"
         x="98.899208"
         y="165.03439">V</tspan></text>
    <text
       xml:space="preserve"
       style="font-size:4.58206px;line-height:1.25;font-family:sans-serif;letter-spacing:0px;word-spacing:0px;stroke-width:0.114552"
       x="-10.224659"
       y="196.32161"
       id="text55"
       transform="matrix(0.96803524,-0.27966056,0.29952785,0.94648814,0,0)"><tspan
         id="tspan55"
         style="stroke-width:0.114552"
         x="-10.224659"
         y="196.32161">A</tspan></text>
  </g>
</svg>
